<?xml version="1.0" encoding="UTF-8" standalone="no"?>
<svg
   width="170"
   height="170"
   viewBox="0 0 170 170"
   fill="none"
   version="1.1"
   id="svg1"
   xml:space="preserve"
   xmlns="http://www.w3.org/2000/svg"
   xmlns:svg="http://www.w3.org/2000/svg"><defs
     id="defs1" /><g
     style="fill:none"
     id="g1"
     transform="matrix(4.3168597,0,0,4.3168597,31.039254,31.039254)"><path
       id="circle1"
       style="fill:#e0e0e0"
       d="M 170,85 A 85,85 0 0 1 85,170 85,85 0 0 1 0,85 85,85 0 0 1 85,0 85,85 0 0 1 170,85 Z"
       transform="matrix(0.23164987,0,0,0.23164987,-7.1902392,-7.1902392)" /><path
       fill-rule="evenodd"
       clip-rule="evenodd"
       d="M 20.7676,21.8757 C 23.363,19.5852 25,16.2339 25,12.5 25,5.59644 19.4036,0 12.5,0 5.59644,0 0,5.59644 0,12.5 0,16.2339 1.63696,19.5852 4.23242,21.8757 6.43579,23.8203 9.33032,25 12.5,25 c 3.0203,0 5.7905,-1.0713 7.9512,-2.8545 0.1069,-0.0881 0.2124,-0.178 0.3164,-0.2698 z M 5.25195,21.429 C 5.79297,21.2141 6.39771,20.9966 6.97314,20.7896 L 6.98047,20.7869 C 7.80664,20.4895 8.57153,20.2141 9,20 10,19.5 9.83325,17.6667 9,16.5 8.33325,14.8333 7.5,12.1445 7.5,11.25 7.5,10.9739 7.65259,10.7214 7.78931,10.4954 7.8999,10.3125 8,10.1467 8,10 7.96973,9.90942 7.93408,9.82446 7.896,9.73364 7.72339,9.32275 7.5,8.79053 7.5,7.06738 7.5,4.5 11.0015,3.5 12.5,3.5 c 1.4985,0 5,1 5,3.56738 0,1.72315 -0.2234,2.25537 -0.396,2.66626 C 17.0659,9.82446 17.0303,9.90942 17,10 c 0,0.1467 0.1001,0.3125 0.2107,0.4954 0.1367,0.226 0.2893,0.4785 0.2893,0.7546 0,0.8945 -0.8333,3.5833 -1.5,5.25 -0.8333,1.1667 -1,3 0,3.5 0.4285,0.2141 1.1934,0.4895 2.0195,0.7869 l 0.0074,0.0027 c 0.5754,0.207 1.1801,0.4245 1.7211,0.6394 C 22.3425,19.3203 24,16.1038 24,12.5 24,6.14868 18.8513,1 12.5,1 6.14868,1 1,6.14868 1,12.5 c 0,3.6038 1.65747,6.8203 4.25195,8.929 z"
       fill="#929292"
       id="path1"
       style="display:inline" /></g></svg>
